<svg viewBox="0 0 96 96" fill="none" xmlns="http://www.w3.org/2000/svg">
<path d="M20.081 55.5359C20.5528 55.5359 20.9354 55.1534 20.9354 54.6815C20.9354 54.2097 20.5528 53.8271 20.081 53.8271C19.6091 53.8271 19.2266 54.2097 19.2266 54.6815C19.2266 55.1534 19.6091 55.5359 20.081 55.5359Z" fill="white"/>
<path d="M76.77 31.4589C77.1305 31.4589 77.4228 31.1667 77.4228 30.8061C77.4228 30.4456 77.1305 30.1533 76.77 30.1533C76.4095 30.1533 76.1172 30.4456 76.1172 30.8061C76.1172 31.1667 76.4095 31.4589 76.77 31.4589Z" fill="white"/>
<path d="M74.245 13.3924C74.7169 13.3924 75.0994 13.0099 75.0994 12.538C75.0994 12.0661 74.7169 11.6836 74.245 11.6836C73.7732 11.6836 73.3906 12.0661 73.3906 12.538C73.3906 13.0099 73.7732 13.3924 74.245 13.3924Z" fill="#F1BC19"/>
<path d="M20.5536 62.8992C21.0255 62.8992 21.408 62.5167 21.408 62.0448C21.408 61.573 21.0255 61.1904 20.5536 61.1904C20.0817 61.1904 19.6992 61.573 19.6992 62.0448C19.6992 62.5167 20.0817 62.8992 20.5536 62.8992Z" fill="#F1BC19"/>
<path d="M48.2176 84.2302C68.0734 84.2302 84.1696 68.1339 84.1696 48.2782C84.1696 28.4224 68.0734 12.3262 48.2176 12.3262C28.3619 12.3262 12.2656 28.4224 12.2656 48.2782C12.2656 68.1339 28.3619 84.2302 48.2176 84.2302Z" fill="#E6EDB7"/>
<path d="M79.4668 18.4512C81.5929 18.4512 83.3164 16.7276 83.3164 14.6016C83.3164 12.4755 81.5929 10.752 79.4668 10.752C77.3407 10.752 75.6172 12.4755 75.6172 14.6016C75.6172 16.7276 77.3407 18.4512 79.4668 18.4512Z" fill="#F1BC19"/>
<path d="M83.3165 25.1135C84.3133 25.1135 85.1213 24.3055 85.1213 23.3087C85.1213 22.3119 84.3133 21.5039 83.3165 21.5039C82.3198 21.5039 81.5117 22.3119 81.5117 23.3087C81.5117 24.3055 82.3198 25.1135 83.3165 25.1135Z" fill="#88AE45"/>
<path d="M74.6876 75.4368C75.6844 75.4368 76.4924 74.6287 76.4924 73.6319C76.4924 72.6352 75.6844 71.8271 74.6876 71.8271C73.6909 71.8271 72.8828 72.6352 72.8828 73.6319C72.8828 74.6287 73.6909 75.4368 74.6876 75.4368Z" fill="#FBCD59"/>
<path d="M14.0527 65.0498C16.1788 65.0498 17.9023 63.3263 17.9023 61.2002C17.9023 59.0741 16.1788 57.3506 14.0527 57.3506C11.9266 57.3506 10.2031 59.0741 10.2031 61.2002C10.2031 63.3263 11.9266 65.0498 14.0527 65.0498Z" fill="#FBCD59"/>
<path d="M23.8829 86.1692C24.8797 86.1692 25.6877 85.3611 25.6877 84.3644C25.6877 83.3676 24.8797 82.5596 23.8829 82.5596C22.8862 82.5596 22.0781 83.3676 22.0781 84.3644C22.0781 85.3611 22.8862 86.1692 23.8829 86.1692Z" fill="#88AE45"/>
<path d="M73.3921 31.0849C74.3464 31.0849 75.1201 30.3113 75.1201 29.3569C75.1201 28.4026 74.3464 27.6289 73.3921 27.6289C72.4377 27.6289 71.6641 28.4026 71.6641 29.3569C71.6641 30.3113 72.4377 31.0849 73.3921 31.0849Z" fill="#12CDF7"/>
<path d="M17.6415 52.0125C18.9882 52.0125 20.0799 50.9208 20.0799 49.5741C20.0799 48.2275 18.9882 47.1357 17.6415 47.1357C16.2948 47.1357 15.2031 48.2275 15.2031 49.5741C15.2031 50.9208 16.2948 52.0125 17.6415 52.0125Z" fill="#06D2FF"/>
<g clip-path="url(#clip0_3697_19182)">
<path d="M38.6794 58.9402C37.3776 59.5079 35.8619 58.9129 35.2941 57.611L34.858 56.6111C33.8432 54.2845 34.4007 51.5642 36.2451 49.842C37.6324 48.5466 37.982 46.4635 37.0949 44.7762C36.1235 42.9287 33.9099 42.0693 31.9457 42.7771C29.8677 43.5246 28.7043 45.7682 29.2955 47.8825C29.349 48.0732 29.4156 48.2599 29.4947 48.4415C30.0625 49.7433 29.4675 51.259 28.1655 51.8268C26.8637 52.3945 25.348 51.7995 24.7802 50.4976C24.606 50.0981 24.4596 49.687 24.3421 49.2673C23.0294 44.5718 25.603 39.5949 30.202 37.9383C34.5677 36.3651 39.4882 38.2757 41.6474 42.3827C43.6098 46.1155 42.8317 50.7287 39.7551 53.6014C39.5006 53.839 39.4272 54.2221 39.5723 54.5549L40.0084 55.5548C40.5764 56.8567 39.9813 58.3724 38.6794 58.9402ZM41.7385 65.9541C40.4367 66.5218 38.9209 65.9268 38.3532 64.6249L38.3446 64.6054C37.7769 63.3036 38.3719 61.7878 39.6738 61.2201C40.9756 60.6523 42.4914 61.2474 43.0591 62.5493L43.0677 62.5688C43.6354 63.8707 43.0403 65.3863 41.7385 65.9541Z" fill="#FFD15B"/>
<path d="M26.4254 48.3585C26.5427 48.7781 26.6891 49.189 26.8636 49.5883C27.2683 50.516 28.1542 51.0855 29.1011 51.1293C28.8469 51.4307 28.5265 51.6693 28.1649 51.8264C26.8638 52.3938 25.3476 51.7995 24.7797 50.4973C24.6056 50.0978 24.4595 49.6867 24.3425 49.2669C23.0287 44.5708 25.6033 39.594 30.2017 37.9375C30.3657 37.8785 30.5314 37.8244 30.6986 37.7754C27.1166 39.8926 25.2725 44.2339 26.4254 48.3585ZM38.3281 48.9325C36.4839 50.6547 35.9259 53.3757 36.9406 55.7023L37.3766 56.7019C37.7812 57.6298 38.6684 58.1985 39.6152 58.2424C39.3611 58.5438 39.0407 58.7824 38.6791 58.9395C37.3769 59.5074 35.8618 58.9125 35.2938 57.6104L34.8579 56.6107C33.8432 54.2841 34.4 51.5637 36.2454 49.8409C37.6323 48.5451 37.9814 46.4632 37.0942 44.7761C36.2605 43.189 34.5101 42.331 32.7886 42.5703C33.1591 42.2672 33.5787 42.0297 34.0293 41.868C35.9935 41.16 38.2069 42.0192 39.1783 43.8672C40.0653 45.5543 39.7152 47.6368 38.3281 48.9325ZM42.6742 65.2563C42.4201 65.5577 42.0997 65.7963 41.738 65.9534C40.4358 66.5213 38.9207 65.9265 38.3528 64.6243L38.3441 64.6042C37.7766 63.3031 38.371 61.7869 39.6732 61.219C40.0343 61.0607 40.4271 60.9882 40.821 61.0071C40.2094 61.7321 40.0228 62.7692 40.4268 63.6959L40.4356 63.7159C40.8403 64.6436 41.7274 65.2125 42.6742 65.2563Z" fill="#FFC344"/>
<path d="M59.193 58.6894C57.8212 58.3218 57.0069 56.9116 57.3745 55.5398L57.6569 54.4861C58.3139 52.0343 60.4456 50.2547 62.9614 50.0581C64.8537 49.91 66.4256 48.4991 66.7838 46.6268C67.176 44.5767 65.9809 42.5248 64.0039 41.8538C61.9131 41.1428 59.6049 42.1719 58.749 44.1936C58.6719 44.376 58.6075 44.5636 58.5564 44.7549C58.1888 46.1267 56.7786 46.941 55.4067 46.5734C54.0349 46.2058 53.2207 44.7956 53.5883 43.4237C53.7011 43.0028 53.8429 42.5901 54.0127 42.1887C55.9134 37.6988 61.0283 35.4117 65.657 36.9834C70.0513 38.4749 72.7075 43.0362 71.8357 47.5935C71.0431 51.7355 67.5589 54.8576 63.3624 55.1859C63.0154 55.213 62.719 55.4669 62.6251 55.8175L62.3427 56.8712C61.975 58.2429 60.5649 59.057 59.193 58.6894ZM57.2124 66.0807C55.8406 65.7131 55.0264 64.3029 55.394 62.9311L55.3995 62.9104C55.7671 61.5386 57.1773 60.7244 58.5491 61.092C59.921 61.4596 60.7352 62.8697 60.3676 64.2416L60.3621 64.2622C59.9945 65.6341 58.5844 66.4483 57.2124 66.0807Z" fill="#6FD7A3"/>
<path d="M56.2083 42.7774C56.0384 43.1787 55.8968 43.5913 55.7843 44.0123C55.5224 44.99 55.8602 45.9874 56.5731 46.6121C56.1865 46.6893 55.7873 46.6761 55.4066 46.5734C54.0356 46.206 53.2206 44.7961 53.5882 43.4238C53.7011 43.0029 53.8432 42.5904 54.0135 42.1893C55.9137 37.6983 61.0292 35.4119 65.6575 36.9833C65.8225 37.0394 65.9858 37.1004 66.1471 37.1663C62.0263 36.5888 57.8781 38.8337 56.2083 42.7774ZM65.1574 50.6463C62.6418 50.8433 60.5091 52.623 59.8522 55.0747L59.57 56.1281C59.308 57.1058 59.647 58.1036 60.36 58.7281C59.9734 58.8054 59.5741 58.7922 59.1935 58.6895C57.8211 58.3218 57.0074 56.9122 57.3751 55.5399L57.6574 54.4865C58.3144 52.0348 60.4456 50.2547 62.9625 50.0581C64.8547 49.9095 66.4255 48.4993 66.7836 46.6271C67.1211 44.8663 66.2872 43.1043 64.7919 42.2183C65.2706 42.2123 65.7468 42.2882 66.2 42.4426C68.1772 43.1134 69.3722 45.165 68.9796 47.2155C68.6216 49.0878 67.0496 50.4978 65.1574 50.6463ZM58.3794 66.1194C57.9928 66.1967 57.5936 66.1834 57.2129 66.0808C55.8406 65.7131 55.0268 64.3034 55.3945 62.9312L55.4001 62.9101C55.7676 61.5391 57.1775 60.7241 58.5497 61.0918C58.9307 61.1932 59.2831 61.3814 59.5792 61.6416C58.6491 61.8272 57.8566 62.5218 57.5949 63.4983L57.5893 63.5194C57.3275 64.497 57.6665 65.4948 58.3794 66.1194Z" fill="#3EC3A4"/>
<path d="M49.1551 55.2721C47.5605 55.2721 46.2678 53.9794 46.2678 52.3848V51.16C46.2678 48.3101 48.0624 45.7608 50.7335 44.8164C52.7427 44.106 54.0375 42.1191 53.8817 39.9846C53.7113 37.6473 51.819 35.7693 49.48 35.6161C47.0059 35.4527 44.8017 37.2394 44.4611 39.6806C44.4305 39.9009 44.4152 40.123 44.4153 40.3453C44.4153 41.9399 43.1225 43.2326 41.5279 43.2326C39.9333 43.2326 38.6406 41.9399 38.6406 40.3453C38.6406 39.8565 38.6748 39.3643 38.742 38.8825C39.4985 33.461 44.3809 29.4943 49.8573 29.8537C55.0563 30.1942 59.2625 34.3689 59.6413 39.5647C59.9854 44.2869 57.1142 48.6853 52.6586 50.2608C52.2901 50.3911 52.0425 50.7524 52.0425 51.16V52.3848C52.0424 53.9794 50.7497 55.2721 49.1551 55.2721ZM49.1551 63.8633C47.5605 63.8633 46.2678 62.5706 46.2678 60.976V60.9521C46.2678 59.3575 47.5605 58.0648 49.1551 58.0648C50.7497 58.0648 52.0424 59.3575 52.0424 60.9521V60.976C52.0424 62.5706 50.7497 63.8633 49.1551 63.8633Z" fill="#0573CE"/>
<path d="M41.2942 38.8832C41.2266 39.3677 41.1929 39.8563 41.1932 40.3456C41.1932 41.482 41.8494 42.4655 42.8042 42.9357C42.4073 43.1319 41.9705 43.2335 41.5278 43.2328C39.9342 43.2328 38.6406 41.9406 38.6406 40.3456C38.6406 39.8567 38.6752 39.3649 38.743 38.8832C39.4987 33.4606 44.382 29.4945 49.8579 29.8536C50.054 29.8666 50.2487 29.8853 50.442 29.9099C45.8054 30.481 41.9591 34.1211 41.2942 38.8832ZM53.2861 44.8164C50.6151 45.761 48.8196 48.3109 48.8196 51.1606V52.3849C48.8196 53.5214 49.4773 54.505 50.432 54.9752C50.0352 55.1713 49.5984 55.273 49.1557 55.2723C47.5607 55.2723 46.2685 53.98 46.2685 52.3849V51.1606C46.2685 48.3108 48.0626 45.761 50.7349 44.8164C52.7439 44.1054 54.0376 42.1195 53.8818 39.9851C53.7361 37.9775 52.3199 36.309 50.4407 35.7826C50.958 35.637 51.4965 35.5809 52.0328 35.6167C54.3721 35.7696 56.2642 37.6474 56.4344 39.9851C56.5901 42.1195 55.295 44.1053 53.2861 44.8164ZM50.4319 63.5662C50.0351 63.7624 49.5983 63.8641 49.1556 63.8633C47.5606 63.8633 46.2684 62.5712 46.2684 60.9761V60.9515C46.2684 59.3579 47.5606 58.0643 49.1556 58.0643C49.6142 58.0643 50.0469 58.171 50.4319 58.3614C49.4772 58.833 48.8195 59.8166 48.8195 60.9515V60.9761C48.8195 62.1125 49.4772 63.0961 50.4319 63.5662Z" fill="#0067C5"/>
</g>
<defs>
<clipPath id="clip0_3697_19182">
<rect width="48" height="48" fill="white" transform="translate(24 24)"/>
</clipPath>
</defs>
</svg>
