<svg viewBox="0 0 254 154" fill="none" xmlns="http://www.w3.org/2000/svg">
<path d="M40.6422 91.0001V73.8481H0.450195V57.4641L36.0342 1.65612H59.0742V59.0001H70.5942V73.8481H59.0742V91.0001H40.6422ZM15.9382 59.0001H40.6422V21.4961H39.4902L15.9382 59.0001Z" fill="#F8F8F8"/>
<path d="M112.4 92.5361C100.454 92.5361 91.6215 88.4828 85.9042 80.3761C80.2722 72.2695 77.4562 60.9201 77.4562 46.3281C77.4562 31.7361 80.2722 20.3868 85.9042 12.2801C91.6215 4.17345 100.454 0.120117 112.4 0.120117C124.347 0.120117 133.136 4.17345 138.768 12.2801C144.486 20.3868 147.344 31.7361 147.344 46.3281C147.344 60.9201 144.486 72.2695 138.768 80.3761C133.136 88.4828 124.347 92.5361 112.4 92.5361ZM112.4 77.4321C118.118 77.4321 122.086 75.4268 124.304 71.4161C126.608 67.4055 127.76 61.8161 127.76 54.6481V38.0081C127.76 30.8401 126.608 25.2508 124.304 21.2401C122.086 17.2295 118.118 15.2241 112.4 15.2241C106.683 15.2241 102.672 17.2295 100.368 21.2401C98.1495 25.2508 97.0402 30.8401 97.0402 38.0081V54.6481C97.0402 61.8161 98.1495 67.4055 100.368 71.4161C102.672 75.4268 106.683 77.4321 112.4 77.4321ZM112.4 53.8801C109.414 53.8801 107.323 53.2828 106.128 52.0881C105.019 50.8935 104.464 49.4428 104.464 47.7361V44.9201C104.464 43.2135 105.019 41.7628 106.128 40.5681C107.323 39.3734 109.414 38.7761 112.4 38.7761C115.387 38.7761 117.435 39.3734 118.544 40.5681C119.739 41.7628 120.336 43.2135 120.336 44.9201V47.7361C120.336 49.4428 119.739 50.8935 118.544 52.0881C117.435 53.2828 115.387 53.8801 112.4 53.8801Z" fill="#F8F8F8"/>
<path d="M172.329 133.558L183.525 120.564L153.076 94.3296L163.77 81.9172L227.155 62.8641L244.61 77.903L207.18 121.346L215.908 128.866L206.216 140.115L197.489 132.595L186.293 145.589L172.329 133.558ZM174.501 93.1903L193.216 109.315L217.696 80.9025L216.824 80.1506L174.501 93.1903Z" fill="#F8F8F8"/>
</svg>
