<svg viewBox="0 0 28 28" fill="none" xmlns="http://www.w3.org/2000/svg">
<rect width="28" height="28" rx="2" fill="white" fill-opacity="0.1"/>
<path d="M21.2422 8.9375H19.5547C18.5854 8.9375 17.7969 9.72605 17.7969 10.6953V21.2422C17.7969 22.2114 18.5854 23 19.5547 23H21.2422C22.2114 23 23 22.2114 23 21.2422V10.6953C23 9.72605 22.2114 8.9375 21.2422 8.9375ZM21.5938 21.2422C21.5938 21.436 21.436 21.5938 21.2422 21.5938H19.5547C19.3608 21.5938 19.2031 21.436 19.2031 21.2422V10.6953C19.2031 10.5015 19.3608 10.3438 19.5547 10.3438H21.2422C21.436 10.3438 21.5938 10.5015 21.5938 10.6953V21.2422Z" fill="#9295AD"/>
<path d="M8.44531 14.2812H6.75781C5.78855 14.2812 5 15.0698 5 16.0391V21.2422C5 22.2114 5.78855 23 6.75781 23H8.44531C9.41457 23 10.2031 22.2114 10.2031 21.2422V16.0391C10.2031 15.0698 9.41457 14.2812 8.44531 14.2812ZM8.79688 21.2422C8.79688 21.436 8.63916 21.5938 8.44531 21.5938H6.75781C6.56396 21.5938 6.40625 21.436 6.40625 21.2422V16.0391C6.40625 15.8452 6.56396 15.6875 6.75781 15.6875H8.44531C8.63916 15.6875 8.79688 15.8452 8.79688 16.0391V21.2422Z" fill="#9295AD"/>
<path d="M14.8438 5H13.1562C12.187 5 11.3984 5.78855 11.3984 6.75781V21.2422C11.3984 22.2114 12.187 23 13.1562 23H14.8438C15.813 23 16.6016 22.2114 16.6016 21.2422V6.75781C16.6016 5.78855 15.813 5 14.8438 5ZM15.1953 21.2422C15.1953 21.436 15.0376 21.5938 14.8438 21.5938H13.1562C12.9624 21.5938 12.8047 21.436 12.8047 21.2422V6.75781C12.8047 6.56396 12.9624 6.40625 13.1562 6.40625H14.8438C15.0376 6.40625 15.1953 6.56396 15.1953 6.75781V21.2422Z" fill="#9295AD"/>
</svg>
