<svg width="24" height="25" viewBox="0 0 24 25" fill="none" xmlns="http://www.w3.org/2000/svg">
<g clip-path="url(#clip0_1_230)">
<g clip-path="url(#clip1_1_230)">
<path d="M22 0.330078H2C0.89543 0.330078 0 1.22551 0 2.33008V22.3301C0 23.4346 0.89543 24.3301 2 24.3301H22C23.1046 24.3301 24 23.4346 24 22.3301V2.33008C24 1.22551 23.1046 0.330078 22 0.330078Z" fill="white" fill-opacity="0.1"/>
<path fill-rule="evenodd" clip-rule="evenodd" d="M6.05859 5.38344C5.56579 5.52545 5.17926 5.9456 5.04926 6.4805C4.98282 6.75383 4.98389 14.9168 5.0504 15.1904C5.18139 15.7293 5.56996 16.1444 6.07552 16.2856C6.2034 16.3213 6.42517 16.3322 7.02263 16.3322H7.80278L7.81097 17.6735C7.8189 18.9723 7.82106 19.0174 7.87928 19.101C8.02432 19.3091 8.2589 19.386 8.44913 19.2878C8.50353 19.2597 9.30896 18.5838 10.239 17.7858L11.9299 16.3349L14.8465 16.3336C18.0174 16.3321 17.916 16.3373 18.2481 16.157C18.4536 16.0454 18.7117 15.774 18.8206 15.5551C19.0094 15.1755 18.9999 15.4252 18.9999 10.8331C18.9999 7.1862 18.9943 6.63626 18.9553 6.47579C18.8243 5.93688 18.4357 5.52179 17.9301 5.38066C17.6822 5.31145 6.29911 5.31411 6.05859 5.38344ZM17.8516 6.41392C17.8959 6.44935 17.9592 6.51715 17.9923 6.56462C18.0523 6.65076 18.0524 6.65788 18.0524 10.83V15.0092L17.9683 15.1272C17.8137 15.3445 18.0076 15.3324 14.6879 15.3324C12.8345 15.3324 11.6577 15.3439 11.6121 15.3624C11.5715 15.379 10.9148 15.9273 10.1529 16.581C9.39091 17.2346 8.76123 17.7694 8.75362 17.7694C8.74598 17.7694 8.73595 17.2924 8.73135 16.7094C8.7233 15.6949 8.72036 15.6456 8.66283 15.563C8.62977 15.5156 8.56654 15.4478 8.52228 15.4124C8.44523 15.3507 8.39537 15.3473 7.33812 15.3324C6.28086 15.3174 6.231 15.314 6.15395 15.2523C6.10969 15.2169 6.04646 15.1491 6.0134 15.1016C5.95348 15.0157 5.95325 15.0006 5.94491 10.9168C5.94031 8.66254 5.9441 6.77289 5.95337 6.71753C5.9743 6.5923 6.09684 6.43267 6.21421 6.37771C6.28745 6.3434 7.3145 6.33725 12.0371 6.34278L17.7711 6.3495L17.8516 6.41392ZM8.0801 9.37713C7.88721 9.46756 7.77601 9.70717 7.81736 9.94329C7.84292 10.0894 7.98852 10.262 8.12071 10.303C8.19397 10.3257 9.42863 10.3332 12.0663 10.3268C15.8914 10.3176 15.9056 10.3174 15.9858 10.2531C16.1388 10.1307 16.1865 10.0309 16.1865 9.83327C16.1865 9.63568 16.1388 9.53583 15.9858 9.41341C15.9055 9.34917 15.8935 9.34895 12.0371 9.3422C8.86584 9.33667 8.15301 9.34295 8.0801 9.37713ZM8.0801 11.3767C7.88709 11.4675 7.77601 11.7069 7.81736 11.943C7.84292 12.089 7.98843 12.2616 8.12071 12.3028C8.19272 12.3252 8.86794 12.333 10.2004 12.3266C12.1408 12.3174 12.1748 12.3162 12.254 12.2528C12.407 12.1304 12.4547 12.0305 12.4547 11.833C12.4547 11.6354 12.407 11.5355 12.254 11.4131C12.1747 11.3496 12.1429 11.3486 10.1713 11.3417C8.5512 11.3361 8.15205 11.3428 8.0801 11.3767Z" fill="#9295AD"/>
</g>
</g>
<defs>
<clipPath id="clip0_1_230">
<rect width="24" height="24" fill="white" transform="translate(0 0.330078)"/>
</clipPath>
<clipPath id="clip1_1_230">
<rect width="24" height="24" fill="white" transform="translate(0 0.330078)"/>
</clipPath>
</defs>
</svg>
