<svg viewBox="0 0 143 144" fill="none" xmlns="http://www.w3.org/2000/svg">
<path d="M18.8574 85.4198C19.758 85.4198 20.4882 84.6945 20.4882 83.7997C20.4882 82.905 19.758 82.1797 18.8574 82.1797C17.9567 82.1797 17.2266 82.905 17.2266 83.7997C17.2266 84.6945 17.9567 85.4198 18.8574 85.4198Z" fill="white"/>
<path d="M127.059 39.7647C127.747 39.7647 128.305 39.2105 128.305 38.5269C128.305 37.8432 127.747 37.2891 127.059 37.2891C126.37 37.2891 125.812 37.8432 125.812 38.5269C125.812 39.2105 126.37 39.7647 127.059 39.7647Z" fill="white"/>
<path d="M19.7597 99.3749C20.6604 99.3749 21.3905 98.6495 21.3905 97.7548C21.3905 96.8601 20.6604 96.1348 19.7597 96.1348C18.859 96.1348 18.1289 96.8601 18.1289 97.7548C18.1289 98.6495 18.859 99.3749 19.7597 99.3749Z" fill="#F1BC19"/>
<path d="M72.5598 139.826C110.459 139.826 141.182 109.305 141.182 71.656C141.182 34.0069 110.459 3.48633 72.5598 3.48633C34.6608 3.48633 3.9375 34.0069 3.9375 71.656C3.9375 109.305 34.6608 139.826 72.5598 139.826Z" fill="#B7EDE7"/>
<g clip-path="url(#clip0_4076_20957)">
<path d="M54.4414 93.4673C51.9191 94.5555 48.9824 93.415 47.8823 90.9197L47.0373 89.0033C45.0713 84.5438 46.1513 79.33 49.7249 76.0292C52.4128 73.5462 53.0902 69.5536 51.3713 66.3197C49.4893 62.7786 45.2004 61.1314 41.3949 62.4881C37.3686 63.9207 35.1146 68.221 36.2601 72.2733C36.3637 72.6388 36.4927 72.9968 36.646 73.3448C37.7461 75.8399 36.5932 78.7451 34.0707 79.8333C31.5485 80.9215 28.6117 79.781 27.5117 77.2857C27.1741 76.52 26.8905 75.7321 26.6629 74.9277C24.1194 65.9278 29.1058 56.3888 38.0163 53.2137C46.475 50.1984 56.0084 53.8604 60.1918 61.7321C63.994 68.8866 62.4864 77.7286 56.5255 83.2346C56.0324 83.69 55.8901 84.4243 56.1713 85.0622L57.0163 86.9786C58.1167 89.4739 56.9638 92.3791 54.4414 93.4673ZM60.3683 106.911C57.8461 107.999 54.9093 106.858 53.8093 104.363L53.7927 104.326C52.6927 101.83 53.8456 98.9253 56.368 97.8371C58.8903 96.7489 61.8271 97.8894 62.9271 100.385L62.9436 100.422C64.0436 102.917 62.8906 105.822 60.3683 106.911Z" fill="#FFD15B"/>
<path d="M30.7031 73.1865C30.9304 73.9908 31.2141 74.7785 31.5522 75.5437C32.3362 77.3219 34.0527 78.4133 35.8873 78.4974C35.3948 79.0751 34.774 79.5323 34.0734 79.8334C31.5526 80.921 28.6149 79.7818 27.5145 77.2859C27.1772 76.5203 26.8942 75.7323 26.6675 74.9277C24.122 65.9268 29.1102 56.3881 38.0197 53.213C38.3374 53.1 38.6584 52.9964 38.9824 52.9023C32.0423 56.9604 28.4694 65.2812 30.7031 73.1865ZM53.7647 74.2868C50.1915 77.5876 49.1103 82.8029 51.0764 87.2622L51.921 89.1782C52.705 90.9566 54.4239 92.0467 56.2584 92.1308C55.766 92.7085 55.1452 93.1658 54.4446 93.4668C51.9216 94.5553 48.9861 93.4152 47.8857 90.9194L47.0411 89.0034C45.0752 84.5441 46.1539 79.3299 49.7294 76.0279C52.4166 73.5443 53.0928 69.554 51.3739 66.3203C49.7586 63.2784 46.3672 61.6339 43.0317 62.0926C43.7497 61.5117 44.5627 61.0565 45.4357 60.7466C49.2413 59.3894 53.5298 61.0363 55.4118 64.5783C57.1305 67.8119 56.4521 71.8033 53.7647 74.2868ZM62.1852 105.574C61.6928 106.152 61.072 106.609 60.3713 106.91C57.8483 107.999 54.9128 106.859 53.8125 104.363L53.7956 104.324C52.6961 101.831 53.8477 98.9244 56.3707 97.8359C57.0704 97.5326 57.8315 97.3936 58.5945 97.4298C57.4097 98.8193 57.048 100.807 57.8309 102.583L57.8478 102.622C58.6319 104.4 60.3508 105.49 62.1852 105.574Z" fill="#FFC344"/>
<path d="M94.1865 92.9877C91.5285 92.2832 89.951 89.5803 90.6632 86.951L91.2103 84.9315C92.4832 80.2321 96.6134 76.8213 101.488 76.4443C105.154 76.1606 108.2 73.4563 108.894 69.8677C109.654 65.9383 107.338 62.0055 103.508 60.7195C99.4566 59.3567 94.9844 61.3291 93.3262 65.2041C93.1768 65.5537 93.0521 65.9132 92.9529 66.2799C92.2407 68.9093 89.5085 70.4699 86.8505 69.7653C84.1926 69.0607 82.615 66.3579 83.3273 63.7285C83.5459 62.9216 83.8206 62.1307 84.1495 61.3613C87.8321 52.7557 97.7423 48.3721 106.71 51.3845C115.224 54.2432 120.371 62.9857 118.682 71.7205C117.146 79.6594 110.395 85.6434 102.265 86.2726C101.592 86.3246 101.018 86.8112 100.836 87.4832L100.289 89.5027C99.5766 92.1319 96.8444 93.6923 94.1865 92.9877ZM90.3491 107.154C87.6912 106.45 86.1136 103.747 86.8258 101.118L86.8365 101.078C87.5488 98.4486 90.281 96.8881 92.9389 97.5926C95.5969 98.2972 97.1744 101 96.4622 103.629L96.4515 103.669C95.7393 106.298 93.0072 107.859 90.3491 107.154Z" fill="#6FD7A3"/>
<path d="M88.4035 62.4897C88.0745 63.2588 87.8 64.0497 87.5821 64.8566C87.0746 66.7305 87.7291 68.6422 89.1105 69.8395C88.3614 69.9876 87.5878 69.9622 86.8503 69.7654C84.194 69.0612 82.6148 66.3589 83.3272 63.7287C83.5459 62.9219 83.8212 62.1313 84.1511 61.3625C87.8328 52.7548 97.744 48.3726 106.711 51.3843C107.031 51.4918 107.347 51.6087 107.66 51.7351C99.676 50.6282 91.6387 54.931 88.4035 62.4897ZM105.742 77.5718C100.868 77.9493 96.7365 81.3605 95.4637 86.0595L94.9168 88.0785C94.4093 89.9524 95.0661 91.8648 96.4475 93.0619C95.6984 93.21 94.9249 93.1847 94.1873 92.9879C91.5285 92.2832 89.9518 89.5814 90.6642 86.9511L91.2111 84.9321C92.4841 80.2329 96.6133 76.8212 101.49 76.4444C105.156 76.1596 108.199 73.4566 108.893 69.8682C109.547 66.4935 107.932 63.1163 105.034 61.4181C105.962 61.4067 106.884 61.5521 107.762 61.848C111.593 63.1337 113.909 67.066 113.148 70.9961C112.454 74.5847 109.409 77.2872 105.742 77.5718ZM92.6101 107.228C91.8611 107.377 91.0875 107.351 90.35 107.154C87.6911 106.45 86.1145 103.748 86.8269 101.118L86.8378 101.077C87.5496 98.4497 90.2813 96.8875 92.94 97.5922C93.6782 97.7866 94.3609 98.1473 94.9348 98.6461C93.1327 99.0019 91.5971 100.333 91.0902 102.205L91.0793 102.245C90.572 104.119 91.2288 106.031 92.6101 107.228Z" fill="#3EC3A4"/>
<path d="M74.735 86.4378C71.6455 86.4378 69.1408 83.9601 69.1408 80.9038V78.5563C69.1408 73.094 72.618 68.2078 77.7933 66.3978C81.686 65.0361 84.1947 61.2278 83.893 57.1367C83.5627 52.6569 79.8963 49.0574 75.3646 48.7638C70.5711 48.4506 66.3003 51.8751 65.6404 56.5541C65.5812 56.9762 65.5515 57.4019 65.5516 57.8281C65.5516 60.8844 63.047 63.3621 59.9574 63.3621C56.8679 63.3621 54.3633 60.8844 54.3633 57.8281C54.3633 56.8912 54.4294 55.9478 54.5596 55.0244C56.0255 44.6331 65.4851 37.0303 76.0957 37.7191C86.1687 38.3717 94.3182 46.3734 95.0521 56.3318C95.7189 65.3829 90.1557 73.8131 81.5231 76.8328C80.8091 77.0825 80.3294 77.775 80.3294 78.5563V80.9038C80.3292 83.9601 77.8245 86.4378 74.735 86.4378ZM74.735 102.904C71.6455 102.904 69.1408 100.427 69.1408 97.3703V97.3245C69.1408 94.2682 71.6455 91.7905 74.735 91.7905C77.8245 91.7905 80.3292 94.2682 80.3292 97.3245V97.3703C80.3292 100.427 77.8245 102.904 74.735 102.904Z" fill="#0573CE"/>
<path d="M59.5046 55.0257C59.3737 55.9543 59.3083 56.8909 59.309 57.8286C59.309 60.0068 60.5803 61.8919 62.4301 62.793C61.6613 63.169 60.8149 63.3639 59.9573 63.3624C56.8696 63.3624 54.3633 60.8858 54.3633 57.8286C54.3633 56.8915 54.4303 55.9489 54.5616 55.0257C56.0258 44.6324 65.4871 37.0307 76.0968 37.7191C76.4768 37.7439 76.854 37.7798 77.2284 37.8269C68.245 38.9215 60.7928 45.8984 59.5046 55.0257ZM82.7388 66.3977C77.5639 68.2083 74.0851 73.0954 74.0851 78.5574V80.9041C74.0851 83.0822 75.3593 84.9675 77.2091 85.8687C76.4403 86.2446 75.5939 86.4395 74.7363 86.4381C71.6458 86.4381 69.1423 83.9613 69.1423 80.9041V78.5574C69.1423 73.0952 72.6183 68.2083 77.796 66.3977C81.6884 65.035 84.1948 61.2286 83.893 57.1377C83.6107 53.2899 80.8668 50.0918 77.2258 49.0829C78.2283 48.8038 79.2716 48.6963 80.3106 48.765C84.8429 49.0581 88.509 52.657 88.8387 57.1377C89.1404 61.2286 86.6312 65.0348 82.7388 66.3977ZM77.2089 102.335C76.4401 102.711 75.5937 102.906 74.7361 102.904C71.6457 102.904 69.1421 100.428 69.1421 97.3705V97.3234C69.1421 94.2689 71.6457 91.7895 74.7361 91.7895C75.6247 91.7895 76.4629 91.994 77.2089 92.359C75.3591 93.2628 74.0849 95.1481 74.0849 97.3234V97.3705C74.0849 99.5486 75.3591 101.434 77.2089 102.335Z" fill="#0067C5"/>
</g>
<defs>
<clipPath id="clip0_4076_20957">
<rect width="93" height="92" fill="white" transform="translate(26 26.5)"/>
</clipPath>
</defs>
</svg>