<svg viewBox="0 0 16 16" fill="none" xmlns="http://www.w3.org/2000/svg">
<path d="M14.1261 0.00439453H1.88288C0.849567 0.00439453 0.00891113 0.845051 0.00891113 1.87836V4.37699H1.25822V1.87836C1.25822 1.53393 1.53844 1.25371 1.88288 1.25371H14.1261C14.4705 1.25371 14.7508 1.53393 14.7508 1.87836V14.1216C14.7508 14.466 14.4705 14.7462 14.1261 14.7462H1.88288C1.53844 14.7462 1.25822 14.466 1.25822 14.1216V11.623H0.00891113V14.1216C0.00891113 15.1549 0.849567 15.9956 1.88288 15.9956H14.1261C15.1594 15.9956 16.0001 15.1549 16.0001 14.1216V1.87836C16 0.845051 15.1594 0.00439453 14.1261 0.00439453Z" fill="#9295AD"/>
<path d="M11.3776 7.37523H2.39144L4.76509 5.00154L3.88172 4.11816L0 7.99988L3.88172 11.8816L4.76509 10.9982L2.39144 8.62454H11.3776V7.37523Z" fill="#9295AD"/>
</svg>