<svg viewBox="0 0 16 16" fill="none" xmlns="http://www.w3.org/2000/svg">
<path d="M13.087 10.4621C13.5732 10.0969 13.9253 9.59749 14.1058 9.01746L16 3.40949H3.82303L3.68869 1.9198C3.64247 1.39587 3.40338 0.911646 3.01547 0.556459C2.62753 0.201272 2.12422 0.00561523 1.59822 0.00561523H0V1.25474H1.59822C2.04163 1.25474 2.40541 1.58783 2.44447 2.0308L3.422 12.8698C3.42216 12.8717 3.42234 12.8736 3.42253 12.8756C3.51781 13.8325 4.23628 14.58 5.15425 14.7357C5.39903 15.4663 6.08947 15.9945 6.90141 15.9945C7.69819 15.9945 8.37828 15.486 8.63469 14.7766H10.1022C10.3586 15.486 11.0387 15.9945 11.8354 15.9945C12.8514 15.9945 13.6779 15.1679 13.6779 14.152C13.6779 13.1361 12.8514 12.3095 11.8354 12.3095C11.0387 12.3095 10.3586 12.818 10.1022 13.5274H8.63469C8.37828 12.818 7.69819 12.3095 6.90141 12.3095C6.13128 12.3095 5.47041 12.7846 5.19547 13.457C4.90925 13.3433 4.69903 13.0787 4.66578 12.7543L4.51019 11.0291H11.3982C12.0092 11.0292 12.5931 10.8331 13.087 10.4621ZM11.8355 13.5587C12.1627 13.5587 12.4288 13.8248 12.4288 14.152C12.4288 14.4792 12.1627 14.7454 11.8355 14.7454C11.5083 14.7454 11.2422 14.4792 11.2422 14.152C11.2422 13.8248 11.5083 13.5587 11.8355 13.5587ZM6.90144 13.5587C7.22862 13.5587 7.49478 13.8248 7.49478 14.152C7.49478 14.4792 7.22862 14.7454 6.90144 14.7454C6.57425 14.7454 6.30809 14.4792 6.30809 14.152C6.30809 13.8248 6.57425 13.5587 6.90144 13.5587ZM4.39756 9.78008V9.78005L3.93566 4.65862H14.2596L12.9198 8.62524L12.9145 8.64146C12.7083 9.31186 12.0848 9.78008 11.3983 9.78008H4.39756Z" fill="#F8F8F8"/>
</svg>
