<svg viewBox="0 0 32 32" fill="none" xmlns="http://www.w3.org/2000/svg">
<path d="M28.25 0H3.75C1.68225 0 0 1.68225 0 3.75V8.75H2.5V3.75C2.5 3.06075 3.06075 2.5 3.75 2.5H28.25C28.9393 2.5 29.5 3.06075 29.5 3.75V28.25C29.5 28.9393 28.9393 29.5 28.25 29.5H3.75C3.06075 29.5 2.5 28.9393 2.5 28.25V23.25H0V28.25C0 30.3177 1.68225 32 3.75 32H28.25C30.3177 32 32 30.3177 32 28.25V3.75C32 1.68225 30.3177 0 28.25 0Z" fill="#9295AD"/>
<path d="M15 8.2323L13.2323 10L17.9823 14.75H0V17.25H17.9823L13.2323 22L15 23.7678L22.7677 16L15 8.2323Z" fill="#9295AD"/>
</svg>