<svg width="24" height="25" viewBox="0 0 24 25" fill="none" xmlns="http://www.w3.org/2000/svg">
<g clip-path="url(#clip0_1_227)">
<path opacity="0.1" d="M22 0.330078H2C0.89543 0.330078 0 1.22551 0 2.33008V22.3301C0 23.4346 0.89543 24.3301 2 24.3301H22C23.1046 24.3301 24 23.4346 24 22.3301V2.33008C24 1.22551 23.1046 0.330078 22 0.330078Z" fill="#D9D9D9"/>
<path fill-rule="evenodd" clip-rule="evenodd" d="M11.8267 10.2431L11.8527 10.6843L11.4192 10.6303C9.8411 10.4232 8.46247 9.72094 7.29193 8.54146L6.71966 7.95622L6.57226 8.3884C6.26012 9.35179 6.45955 10.3692 7.10984 11.0534C7.45667 11.4316 7.37864 11.4856 6.78036 11.2605C6.57226 11.1885 6.39018 11.1345 6.37284 11.1615C6.31214 11.2245 6.52024 12.0438 6.68498 12.368C6.91042 12.8182 7.36996 13.2593 7.87286 13.5204L8.29773 13.7275L7.79483 13.7365C7.30927 13.7365 7.29193 13.7455 7.34395 13.9346C7.51737 14.5198 8.20235 15.1411 8.96537 15.4112L9.50295 15.6003L9.03473 15.8884C8.34108 16.3026 7.52604 16.5367 6.71099 16.5547C6.32081 16.5637 6 16.5997 6 16.6267C6 16.7167 7.05782 17.2209 7.67344 17.419C9.52029 18.0043 11.714 17.7522 13.3614 16.7527C14.5319 16.0415 15.7025 14.6279 16.2487 13.2593C16.5435 12.53 16.8383 11.1975 16.8383 10.5582C16.8383 10.1441 16.8643 10.0901 17.3499 9.59489C17.636 9.30677 17.9048 8.99164 17.9568 8.90161C18.0435 8.73054 18.0349 8.73054 17.5927 8.8836C16.8557 9.15371 16.7516 9.11769 17.1158 8.71253C17.3846 8.42441 17.7054 7.9022 17.7054 7.74914C17.7054 7.72213 17.5753 7.76715 17.4279 7.84818C17.2719 7.93822 16.925 8.07327 16.6649 8.1543L16.1967 8.30737L15.7718 8.01025C15.5377 7.84818 15.2082 7.66811 15.0348 7.61409C14.5926 7.48803 13.9163 7.50604 13.5175 7.6501C12.4336 8.05526 11.7486 9.09969 11.8267 10.2431Z" fill="#B9F700"/>
</g>
<defs>
<clipPath id="clip0_1_227">
<rect width="24" height="24" fill="white" transform="translate(0 0.330078)"/>
</clipPath>
</defs>
</svg>
