<svg viewBox="0 0 16 16" fill="none" xmlns="http://www.w3.org/2000/svg">
<rect width="16" height="16" rx="8" fill="#9295AD"/>
<path d="M7.18188 8.6536C7.22122 9.06333 7.28792 9.36783 7.3797 9.56873C7.47263 9.76898 7.63758 9.86886 7.87571 9.86886C7.92023 9.86886 7.96006 9.8619 7.99955 9.8538C8.04003 9.8619 8.07969 9.86886 8.12453 9.86886C8.36201 9.86886 8.52746 9.76898 8.61989 9.56873C8.71216 9.36783 8.77773 9.06333 8.81787 8.6536L9.02929 5.49008C9.06863 4.87347 9.0887 4.43105 9.0887 4.16248C9.0887 3.79695 8.99335 3.51171 8.80201 3.30693C8.61002 3.10215 8.3578 3 8.04537 3C8.02869 3 8.01623 3.00372 7.99988 3.00437C7.98434 3.00372 7.97155 3 7.95536 3C7.64228 3 7.39055 3.10215 7.19888 3.30693C7.00737 3.51204 6.91138 3.79744 6.91138 4.16264C6.91138 4.43121 6.93096 4.87363 6.97095 5.49025L7.18188 8.6536ZM8.00781 11.0252C7.70444 11.0252 7.44672 11.1209 7.23271 11.3122C7.01887 11.5037 6.9117 11.7362 6.9117 12.0091C6.9117 12.3172 7.02016 12.5597 7.23547 12.7358C7.45174 12.9119 7.70396 13 7.99227 13C8.28576 13 8.5417 12.9132 8.76057 12.7392C8.97911 12.5657 9.08838 12.3219 9.08838 12.0094C9.08838 11.7365 8.9838 11.504 8.77465 11.3125C8.5655 11.1209 8.30988 11.0252 8.00733 11.0252" fill="#0C0E1B"/>
</svg>
