<svg viewBox="0 0 16 16" fill="none" xmlns="http://www.w3.org/2000/svg">
<path d="M1.40625 4.75H0V6H1.40625V4.75Z" fill="#9295AD"/>
<path d="M1.90159 7.8006L0.575424 8.46851L1.13766 9.58485L2.46383 8.91694L1.90159 7.8006Z" fill="#9295AD"/>
<path d="M1.138 1.08507L0.57576 2.20142L1.87073 2.85361L2.43296 1.73726L1.138 1.08507Z" fill="#9295AD"/>
<path d="M16 4.75H14.5938V6H16V4.75Z" fill="#9295AD"/>
<path d="M14.0986 7.80089L13.5363 8.91724L14.8625 9.58515L15.4248 8.4688L14.0986 7.80089Z" fill="#9295AD"/>
<path d="M14.8619 1.08499L13.567 1.73718L14.1292 2.85353L15.4242 2.20133L14.8619 1.08499Z" fill="#9295AD"/>
<path d="M13.3749 5.33928C13.3556 2.39191 10.9518 0 8 0C5.04816 0 2.64444 2.39191 2.62512 5.33928L2.625 5.375H2.62506C2.63497 7.52147 3.53772 8.70937 4.33469 9.75816C5.00128 10.6353 5.52775 11.3282 5.52775 12.4816V14.125C5.52775 15.1589 6.36888 16 7.40275 16H8.59722C9.63109 16 10.4722 15.1589 10.4722 14.125V12.4817C10.4722 11.3282 10.9987 10.6353 11.6653 9.75819C12.4623 8.70937 13.365 7.52147 13.3749 5.375L13.375 5.33928H13.3749ZM9.22222 14.125C9.22222 14.4696 8.94184 14.75 8.59722 14.75H7.40275C7.05813 14.75 6.77775 14.4696 6.77775 14.125V12.9062H9.22222V14.125ZM10.67 9.00187C10.0917 9.76297 9.49731 10.5451 9.29481 11.6562H6.70516C6.50266 10.5451 5.90828 9.76297 5.32994 9.00187C4.58453 8.02097 3.88034 7.09425 3.875 5.35909C3.88359 3.09181 5.73075 1.25 8 1.25C10.2692 1.25 12.1164 3.09181 12.125 5.35909C12.1197 7.09425 11.4154 8.02097 10.67 9.00187Z" fill="#9295AD"/>
</svg>