<svg viewBox="0 0 28 28" fill="none" xmlns="http://www.w3.org/2000/svg">
<rect width="28" height="28" rx="2" fill="white" fill-opacity="0.1"/>
<path d="M19.6569 16.636C18.7855 15.6558 17.7484 14.9301 16.6168 14.4909C17.8288 13.5518 18.625 11.9802 18.625 10.2031C18.625 7.33413 16.5502 5 14 5C11.4498 5 9.375 7.33413 9.375 10.2031C9.375 11.9802 10.1712 13.5518 11.3832 14.4909C10.2516 14.9301 9.2145 15.6558 8.34316 16.636C6.83216 18.3359 6 20.596 6 23H7.25C7.25 18.8128 10.278 15.4062 14 15.4062C17.722 15.4062 20.75 18.8128 20.75 23H22C22 20.596 21.1678 18.3359 19.6569 16.636ZM14 14C12.139 14 10.625 12.2968 10.625 10.2031C10.625 8.1095 12.139 6.40625 14 6.40625C15.861 6.40625 17.375 8.1095 17.375 10.2031C17.375 12.2968 15.861 14 14 14Z" fill="#9295AD"/>
</svg>
