<svg viewBox="0 0 32 32" fill="none" xmlns="http://www.w3.org/2000/svg">
<g clip-path="url(#clip0_2278_1882)">
<path d="M31.52 19.8719C29.3856 28.4431 20.7024 33.6591 12.128 31.5199C3.55438 29.3815 -1.65922 20.7031 0.479984 12.1319C2.61918 3.55829 11.2976 -1.66091 19.8696 0.478293C28.44 2.61909 33.66 11.2983 31.52 19.8719Z" fill="#F7931A"/>
<path d="M23.056 13.7199C23.3744 11.5903 21.7536 10.4455 19.536 9.68149L20.256 6.79749L18.5 6.35989L17.7992 9.16789C17.3315 9.05286 16.8627 8.94272 16.3928 8.83749L17.0968 6.01109L15.3424 5.57349L14.6248 8.45589L11.0832 7.57909L10.616 9.45429C10.616 9.45429 11.9192 9.75269 11.8912 9.77189C12.6024 9.94949 12.7312 10.4199 12.7096 10.7927L10.7392 18.6935C10.652 18.9095 10.432 19.2335 9.93518 19.1095C9.95198 19.1351 8.65838 18.7895 8.65838 18.7895L7.78638 20.8023L11.3224 21.6951L10.596 24.6127L12.3496 25.0503L13.0696 22.1639C13.5496 22.2943 14.0136 22.4143 14.4688 22.5271L13.7512 25.3999L15.5072 25.8375L16.2344 22.9255C19.228 23.4919 21.48 23.2631 22.4264 20.5575C23.1896 18.3775 22.3888 17.1199 20.8136 16.2991C21.9608 16.0335 22.8248 15.2791 23.0552 13.7207L23.0568 13.7191L23.056 13.7199ZM19.044 19.3447C18.5 21.5247 14.8304 20.3463 13.6392 20.0511L14.6032 16.1855C15.7936 16.4831 19.6096 17.0711 19.0448 19.3447H19.044ZM19.588 13.6887C19.0936 15.6727 16.0376 14.6647 15.0464 14.4167L15.9184 10.9103C16.9104 11.1583 20.1032 11.6191 19.5872 13.6879" fill="white"/>
</g>
<defs>
<clipPath id="clip0_2278_1882">
<rect width="32" height="32" fill="white"/>
</clipPath>
</defs>
</svg>
