<svg viewBox="0 0 16 16" fill="none" xmlns="http://www.w3.org/2000/svg">
<path fill-rule="evenodd" clip-rule="evenodd" d="M1.20985 0.0609856C0.646649 0.223279 0.204901 0.703447 0.0563303 1.31477C-0.0196045 1.62715 -0.0183717 10.9563 0.0576298 11.269C0.207334 11.8849 0.651414 12.3592 1.22921 12.5205C1.37534 12.5613 1.6288 12.5738 2.31162 12.5738H3.20321L3.21257 14.1067C3.22164 15.591 3.2241 15.6427 3.29064 15.7381C3.4564 15.976 3.72449 16.0639 3.9419 15.9516C4.00407 15.9195 4.92456 15.1471 5.98744 14.2351L7.91997 12.577L11.2532 12.5754C14.877 12.5737 14.7611 12.5797 15.1407 12.3736C15.3756 12.246 15.6706 11.9359 15.795 11.6857C16.0107 11.2519 15.9999 11.5373 15.9999 6.28917C15.9999 2.12128 15.9935 1.49278 15.9489 1.30938C15.7992 0.693484 15.3551 0.219101 14.7773 0.0578076C14.494 -0.021286 1.48473 -0.0182508 1.20985 0.0609856ZM14.6876 1.23868C14.7382 1.27917 14.8105 1.35666 14.8483 1.4109C14.9169 1.50934 14.917 1.51749 14.917 6.28563V11.0618L14.821 11.1967C14.6443 11.445 14.8659 11.4311 11.0719 11.4311C8.9538 11.4311 7.6088 11.4443 7.55672 11.4655C7.5103 11.4844 6.75985 12.1111 5.88905 12.8582C5.01822 13.6052 4.29859 14.2164 4.28989 14.2164C4.28116 14.2164 4.2697 13.6712 4.26443 13.0049C4.25524 11.8454 4.25187 11.7891 4.18613 11.6948C4.14835 11.6406 4.07608 11.5631 4.0255 11.5226C3.93744 11.4521 3.88046 11.4483 2.67217 11.4311C1.46387 11.414 1.4069 11.4102 1.31883 11.3397C1.26826 11.2992 1.19599 11.2217 1.1582 11.1674C1.08973 11.0692 1.08946 11.052 1.07993 6.38476C1.07467 3.80852 1.079 1.64893 1.0896 1.58565C1.11352 1.44253 1.25356 1.2601 1.38771 1.19729C1.4714 1.15808 2.64518 1.15105 8.04248 1.15737L14.5956 1.16505L14.6876 1.23868ZM3.52014 4.6252C3.2997 4.72854 3.17262 5.00239 3.21987 5.27224C3.24909 5.43921 3.41549 5.6365 3.56656 5.68331C3.65029 5.70927 5.06133 5.7178 8.0758 5.71055C12.4474 5.70002 12.4635 5.69973 12.5552 5.62635C12.73 5.48645 12.7846 5.37233 12.7846 5.14651C12.7846 4.92069 12.73 4.80657 12.5552 4.66666C12.4635 4.59325 12.4498 4.593 8.04248 4.58528C4.41813 4.57896 3.60348 4.58614 3.52014 4.6252ZM3.52014 6.91035C3.29957 7.01415 3.17262 7.28775 3.21987 7.55756C3.24909 7.72442 3.41539 7.92175 3.56656 7.96881C3.64886 7.99445 4.42053 8.0033 5.94336 7.99606C8.16097 7.98549 8.19985 7.98409 8.29031 7.91168C8.46517 7.77177 8.51972 7.65765 8.51972 7.43183C8.51972 7.20601 8.46517 7.09189 8.29031 6.95198C8.19975 6.87946 8.1634 6.87825 5.91004 6.87043C4.05855 6.86404 3.60238 6.87164 3.52014 6.91035Z" fill="#9295AD"/>
</svg>
