<svg viewBox="0 0 16 16" fill="none" xmlns="http://www.w3.org/2000/svg">
<path d="M3 3.10625V11.125C2.99988 11.9184 3.30154 12.6821 3.8438 13.2613C4.38606 13.8405 5.12831 14.1917 5.92 14.2437L6.125 14.25H11.6425C11.5133 14.6155 11.2739 14.932 10.9574 15.1559C10.6408 15.3797 10.2627 15.4999 9.875 15.5H5.5C4.50544 15.5 3.55161 15.1049 2.84835 14.4017C2.14509 13.6984 1.75 12.7446 1.75 11.75V4.875C1.7498 4.48709 1.86991 4.10867 2.09379 3.79189C2.31766 3.4751 2.63428 3.23555 3 3.10625ZM12.375 0.5C12.8723 0.5 13.3492 0.697544 13.7008 1.04917C14.0525 1.40081 14.25 1.87772 14.25 2.375V11.125C14.25 11.6223 14.0525 12.0992 13.7008 12.4508C13.3492 12.8025 12.8723 13 12.375 13H6.125C5.62772 13 5.15081 12.8025 4.79917 12.4508C4.44754 12.0992 4.25 11.6223 4.25 11.125V2.375C4.25 1.87772 4.44754 1.40081 4.79917 1.04917C5.15081 0.697544 5.62772 0.5 6.125 0.5H12.375Z" fill="#9295AD"/>
</svg>
