<svg viewBox="0 0 14 14" fill="none" xmlns="http://www.w3.org/2000/svg">
<g clip-path="url(#clip0_3527_20016)">
<path d="M2 2.10625V10.125C1.99988 10.9184 2.30154 11.6821 2.8438 12.2613C3.38606 12.8405 4.12831 13.1917 4.92 13.2437L5.125 13.25H10.6425C10.5133 13.6155 10.2739 13.932 9.95737 14.1559C9.64084 14.3797 9.26269 14.4999 8.875 14.5H4.5C3.50544 14.5 2.55161 14.1049 1.84835 13.4017C1.14509 12.6984 0.75 11.7446 0.75 10.75V3.875C0.749797 3.48709 0.86991 3.10867 1.09379 2.79189C1.31766 2.4751 1.63428 2.23555 2 2.10625ZM11.375 -0.5C11.8723 -0.5 12.3492 -0.302456 12.7008 0.0491748C13.0525 0.400806 13.25 0.877719 13.25 1.375V10.125C13.25 10.6223 13.0525 11.0992 12.7008 11.4508C12.3492 11.8025 11.8723 12 11.375 12H5.125C4.62772 12 4.15081 11.8025 3.79917 11.4508C3.44754 11.0992 3.25 10.6223 3.25 10.125V1.375C3.25 0.877719 3.44754 0.400806 3.79917 0.0491748C4.15081 -0.302456 4.62772 -0.5 5.125 -0.5H11.375Z" fill="#9295AD"/>
</g>
<defs>
<clipPath id="clip0_3527_20016">
<rect width="14" height="14" fill="white"/>
</clipPath>
</defs>
</svg>
