<svg viewBox="0 0 28 28" fill="none" xmlns="http://www.w3.org/2000/svg">
<rect width="28" height="28" rx="2" fill="white" fill-opacity="0.1"/>
<path d="M15.0156 5C13.874 5 12.9453 5.92872 12.9453 7.07032C12.9453 8.21192 13.8741 9.14064 15.0156 9.14064C16.1572 9.14064 17.086 8.21192 17.086 7.07032C17.086 5.92872 16.1572 5 15.0156 5ZM15.0156 7.73702C14.648 7.73702 14.3489 7.43795 14.3489 7.07032C14.3489 6.70269 14.648 6.40362 15.0156 6.40362C15.3833 6.40362 15.6823 6.70269 15.6823 7.07032C15.6823 7.43795 15.3833 7.73702 15.0156 7.73702Z" fill="#9295AD"/>
<path d="M16.6663 19.8862L15.5578 20.4353L16.7625 12.2944C16.7676 12.2604 16.7701 12.2261 16.7701 12.1917C16.7701 11.5676 16.4649 10.9844 15.9537 10.6316C15.4484 10.2829 14.8044 10.2045 14.231 10.422C14.2101 10.4299 14.1896 10.4388 14.1696 10.4487L10.707 12.1561L11.3278 13.415L12.4378 12.8677L11.2333 21.0046C11.2283 21.0386 11.2258 21.073 11.2258 21.1074C11.2258 21.7295 11.5321 22.3122 12.0452 22.6664C12.3653 22.8873 12.7397 23.0009 13.1164 23.0009C13.3397 23.0009 13.5639 22.961 13.778 22.8798C13.7993 22.8717 13.8202 22.8626 13.8406 22.8524L17.2894 21.1439L16.6663 19.8862ZM14.0267 21.1939L13.2547 21.5763C13.0591 21.6387 12.9024 21.5526 12.8425 21.5112C12.7823 21.4697 12.6471 21.3543 12.6309 21.1483L13.9683 12.1129L14.7538 11.7255C14.9392 11.6659 15.0846 11.7372 15.1563 11.7868C15.2157 11.8278 15.349 11.9421 15.3648 12.1505L14.0267 21.1939Z" fill="#9295AD"/>
</svg>