<svg viewBox="0 0 24 24" fill="none" xmlns="http://www.w3.org/2000/svg">
<rect x="1" y="1" width="22" height="22" rx="1" stroke="#373843" stroke-width="2"/>
<path d="M12.9042 4C11.8895 4 11.064 4.82553 11.064 5.84028C11.064 6.85504 11.8895 7.68057 12.9042 7.68057C13.919 7.68057 14.7445 6.85504 14.7445 5.84028C14.7445 4.82553 13.919 4 12.9042 4ZM12.9042 6.43291C12.5775 6.43291 12.3116 6.16707 12.3116 5.84028C12.3116 5.5135 12.5775 5.24766 12.9042 5.24766C13.231 5.24766 13.4969 5.5135 13.4969 5.84028C13.4969 6.16707 13.231 6.43291 12.9042 6.43291Z" fill="#9295AD"/>
<path d="M14.3716 17.2313L13.3863 17.7194L14.4571 10.4831C14.4616 10.4529 14.4638 10.4223 14.4638 10.3918C14.4638 9.83698 14.1925 9.31861 13.7382 9.00501C13.289 8.69501 12.7166 8.62536 12.2069 8.81867C12.1883 8.82573 12.1701 8.83364 12.1523 8.84245L9.07446 10.3601L9.62625 11.4791L10.6129 10.9926L9.54228 18.2255C9.53781 18.2557 9.53556 18.2862 9.53556 18.3168C9.53556 18.8698 9.80787 19.3878 10.264 19.7026C10.5485 19.8989 10.8813 20 11.2162 20C11.4146 20 11.6139 19.9644 11.8042 19.8923C11.8231 19.8851 11.8417 19.877 11.8598 19.868L14.9254 18.3492L14.3716 17.2313ZM12.0252 18.3937L11.3391 18.7336C11.1652 18.7891 11.0259 18.7125 10.9726 18.6758C10.9191 18.6388 10.7989 18.5363 10.7846 18.3532L11.9734 10.3217L12.6716 9.97739C12.8364 9.92436 12.9656 9.9878 13.0294 10.0319C13.0822 10.0683 13.2006 10.1699 13.2147 10.3552L12.0252 18.3937Z" fill="#9295AD"/>
</svg>