<svg width="24" height="25" viewBox="0 0 24 25" fill="none" xmlns="http://www.w3.org/2000/svg">
<g clip-path="url(#clip0_1_222)">
<path opacity="0.1" d="M22 0.330078H2C0.89543 0.330078 0 1.22551 0 2.33008V22.3301C0 23.4346 0.89543 24.3301 2 24.3301H22C23.1046 24.3301 24 23.4346 24 22.3301V2.33008C24 1.22551 23.1046 0.330078 22 0.330078Z" fill="#D9D9D9"/>
<path fill-rule="evenodd" clip-rule="evenodd" d="M12.0006 5.93018C10.2625 5.93018 10.0443 5.93778 9.36165 5.96884C8.68031 6.00004 8.21523 6.10791 7.8083 6.26618C7.38736 6.42965 7.03029 6.64832 6.67455 7.00419C6.31855 7.35992 6.09988 7.71699 5.93588 8.1378C5.77721 8.54487 5.66921 9.01007 5.63854 9.69115C5.60801 10.3738 5.60001 10.5921 5.60001 12.3302C5.60001 14.0684 5.60774 14.2859 5.63867 14.9685C5.67001 15.6499 5.77787 16.1149 5.93601 16.5219C6.09961 16.9428 6.31828 17.2999 6.67415 17.6556C7.02975 18.0116 7.38682 18.2308 7.8075 18.3943C8.2147 18.5526 8.6799 18.6604 9.36111 18.6916C10.0438 18.7227 10.2618 18.7303 11.9998 18.7303C13.7381 18.7303 13.9556 18.7227 14.6382 18.6916C15.3196 18.6604 15.7852 18.5526 16.1924 18.3943C16.6132 18.2308 16.9697 18.0116 17.3253 17.6556C17.6813 17.2999 17.9 16.9428 18.064 16.522C18.2213 16.1149 18.3293 15.6497 18.3613 14.9687C18.392 14.286 18.4 14.0684 18.4 12.3302C18.4 10.5921 18.392 10.374 18.3613 9.69128C18.3293 9.00994 18.2213 8.54487 18.064 8.13793C17.9 7.71699 17.6813 7.35992 17.3253 7.00419C16.9693 6.64818 16.6133 6.42951 16.192 6.26618C15.784 6.10791 15.3186 6.00004 14.6373 5.96884C13.9546 5.93778 13.7373 5.93018 11.9986 5.93018H12.0006ZM11.4264 7.0835C11.5968 7.08324 11.787 7.0835 12.0006 7.0835C13.7094 7.0835 13.9119 7.08964 14.5867 7.1203C15.2107 7.14884 15.5494 7.2531 15.775 7.34071C16.0737 7.45671 16.2866 7.59537 16.5105 7.81938C16.7345 8.04338 16.8732 8.25672 16.9894 8.55538C17.077 8.78072 17.1814 9.11939 17.2098 9.7434C17.2405 10.4181 17.2472 10.6207 17.2472 12.3288C17.2472 14.0368 17.2405 14.2394 17.2098 14.9141C17.1813 15.5381 17.077 15.8768 16.9894 16.1021C16.8734 16.4008 16.7345 16.6135 16.5105 16.8373C16.2865 17.0613 16.0738 17.2 15.775 17.316C15.5497 17.404 15.2107 17.508 14.5867 17.5365C13.9121 17.5672 13.7094 17.5739 12.0006 17.5739C10.2916 17.5739 10.0891 17.5672 9.41442 17.5365C8.79041 17.5077 8.45174 17.4035 8.22601 17.3159C7.92734 17.1999 7.714 17.0612 7.49 16.8372C7.266 16.6132 7.12733 16.4004 7.01106 16.1016C6.92346 15.8763 6.81906 15.5376 6.79066 14.9136C6.75999 14.2389 6.75386 14.0362 6.75386 12.3272C6.75386 10.6181 6.75999 10.4165 6.79066 9.7418C6.81919 9.11779 6.92346 8.77912 7.01106 8.55352C7.12706 8.25485 7.266 8.04151 7.49 7.81751C7.714 7.59351 7.92734 7.45484 8.22601 7.33857C8.45161 7.25057 8.79041 7.14657 9.41442 7.1179C10.0048 7.09124 10.2336 7.08324 11.4264 7.0819V7.0835ZM15.4169 8.14618C14.9929 8.14618 14.6489 8.48979 14.6489 8.91392C14.6489 9.33793 14.9929 9.68193 15.4169 9.68193C15.8409 9.68193 16.1849 9.33793 16.1849 8.91392C16.1849 8.48992 15.8409 8.14618 15.4169 8.14618ZM12.0006 9.04352C10.1855 9.04352 8.71392 10.5151 8.71392 12.3302C8.71392 14.1453 10.1855 15.6163 12.0006 15.6163C13.8157 15.6163 15.2868 14.1453 15.2868 12.3302C15.2868 10.5151 13.8157 9.04352 12.0006 9.04352ZM12.0006 10.1969C13.1787 10.1969 14.1339 11.1519 14.1339 12.3302C14.1339 13.5084 13.1787 14.4636 12.0006 14.4636C10.8223 14.4636 9.86724 13.5084 9.86724 12.3302C9.86724 11.1519 10.8223 10.1969 12.0006 10.1969Z" fill="#B9F700"/>
</g>
<defs>
<clipPath id="clip0_1_222">
<rect width="24" height="24" fill="white" transform="translate(0 0.330078)"/>
</clipPath>
</defs>
</svg>
