<svg viewBox="0 0 14 14" fill="none" xmlns="http://www.w3.org/2000/svg">
<path d="M13.7144 2.00011L11.998 0.2855C11.6168 -0.0953945 10.9966 -0.095121 10.6156 0.286047L1.43922 9.46662C1.15247 9.75309 0.933491 10.1078 0.805979 10.4924L0.797803 10.517L0 14L3.48613 13.2037L3.51074 13.1956C3.89566 13.0683 4.25066 12.8496 4.53773 12.5629L13.715 3.3815C13.8995 3.19691 14.001 2.95157 14.0009 2.69067C14.0008 2.42982 13.899 2.18456 13.7144 2.00011ZM1.455 12.5459L1.78084 11.1233L2.87926 12.2206L1.455 12.5459ZM3.87974 11.6743L2.32811 10.1242L9.91324 2.53567L11.4649 4.08572L3.87974 11.6743ZM12.238 3.31228L10.6863 1.76224L11.3071 1.14114L12.8588 2.69119L12.238 3.31228Z" fill="#AEB1C5"/>
</svg>
