<svg viewBox="0 0 16 16" fill="none" xmlns="http://www.w3.org/2000/svg">
<path d="M15.0658 0.541215C15.0111 0.57234 9.60144 3.62818 5.87491 3.68125C5.85437 3.67921 5.83356 3.67809 5.8125 3.67809H1.875C0.841125 3.67809 0 4.51922 0 5.55309V7.70934C0 8.52412 0.522563 9.21881 1.25 9.47684V12.8656C1.25 14.5887 2.65188 15.9906 4.375 15.9906H5V12.0218H6.25V10.5218H5V9.58434H5.8125C5.84197 9.58434 5.87072 9.58159 5.89909 9.57765C9.63141 9.63846 15.0295 12.4526 15.0841 12.4812L16 12.9629V0.00927734L15.0658 0.541215ZM3.75 14.6335C3.02247 14.3755 2.5 13.6804 2.5 12.8656V9.58434H3.75V14.6335ZM5.1875 8.33434H1.875C1.53038 8.33434 1.25 8.05396 1.25 7.70934V5.55309C1.25 5.20847 1.53038 4.92809 1.875 4.92809H5.1875V8.33434ZM14.75 10.9217C13.0797 10.1288 9.45081 8.56356 6.4375 8.35093V4.90568C9.4485 4.67646 13.0694 2.98996 14.75 2.12762V10.9217Z" fill="#B9F700"/>
</svg>