<svg viewBox="0 0 16 16" fill="none" xmlns="http://www.w3.org/2000/svg">
<path d="M14.125 0H1.875C0.841125 0 0 0.841125 0 1.875V4.375H1.25V1.875C1.25 1.53038 1.53038 1.25 1.875 1.25H14.125C14.4696 1.25 14.75 1.53038 14.75 1.875V14.125C14.75 14.4696 14.4696 14.75 14.125 14.75H1.875C1.53038 14.75 1.25 14.4696 1.25 14.125V11.625H0V14.125C0 15.1589 0.841125 16 1.875 16H14.125C15.1589 16 16 15.1589 16 14.125V1.875C16 0.841125 15.1589 0 14.125 0Z" fill="#B9F700"/>
<path d="M7.5 4.11621L6.61613 5.00009L8.99113 7.37509H0V8.62509H8.99113L6.61613 11.0001L7.5 11.884L11.3839 8.00009L7.5 4.11621Z" fill="#B9F700"/>
</svg>