<svg viewBox="0 0 16 16" fill="none" xmlns="http://www.w3.org/2000/svg">
<g clip-path="url(#clip0_1698_29477)">
<path d="M9.58494 1.27578C9.60181 1.25455 9.62283 1.23697 9.64671 1.22412C9.67059 1.21126 9.69683 1.2034 9.72385 1.20101C9.75086 1.19861 9.77808 1.20173 9.80385 1.21019C9.82961 1.21864 9.85339 1.23225 9.87374 1.25018L10.6106 1.89979L8.29132 4.79983H9.82814L11.513 2.6942L12.8346 3.85982C12.8737 3.89435 12.8977 3.94278 12.9016 3.99479C12.9055 4.0468 12.8889 4.09826 12.8554 4.13822L12.3034 4.79983H13.8586C14.0512 4.51781 14.1342 4.17509 14.0917 3.8362C14.0493 3.49731 13.8844 3.18562 13.6282 2.9598L10.6682 0.349364C10.5254 0.223605 10.3584 0.128274 10.1775 0.0691939C9.99667 0.0101139 9.80565 -0.0114752 9.61615 0.00574519C9.42665 0.0229656 9.24265 0.0786339 9.07539 0.16935C8.90813 0.260067 8.76111 0.383927 8.64332 0.533367L5.28087 4.79983H6.80889L9.58494 1.27578ZM11.1002 10.3999C10.941 10.3999 10.6762 10.3999 10.5001 10.3999C10.5001 10.5743 10.5001 10.8408 10.5001 10.9999C10.5001 11.1591 10.5001 11.3499 10.5001 11.5999C10.7501 11.5999 10.941 11.5999 11.1002 11.5999H12.7002C12.8593 11.5999 13.0502 11.5999 13.3002 11.5999C13.3002 11.3499 13.3002 11.1591 13.3002 10.9999C13.3002 10.8408 13.3002 10.6499 13.3002 10.3999C13.0502 10.3999 12.8593 10.3999 12.7002 10.3999H11.1002ZM1.70002 4.99983C1.70002 4.8407 1.76323 4.68809 1.87576 4.57556C1.98828 4.46304 2.14089 4.39983 2.30003 4.39983H4.80246L5.75608 3.19981H2.30003C1.82263 3.19981 1.36479 3.38945 1.02722 3.72702C0.689645 4.06459 0.5 4.52244 0.5 4.99983V13.4C0.5 14.0895 0.773932 14.7509 1.26153 15.2385C1.74914 15.7261 2.41047 16 3.10004 16H12.7002C13.3898 16 14.0511 15.7261 14.5387 15.2385C15.0263 14.7509 15.3002 14.0895 15.3002 13.4V8.19988C15.3002 7.51031 15.0263 6.84898 14.5387 6.36138C14.0511 5.87378 13.3898 5.59984 12.7002 5.59984H2.30003C2.14089 5.59984 1.98828 5.53663 1.87576 5.4241C1.76323 5.31158 1.70002 5.15897 1.70002 4.99983ZM1.70002 13.4V6.69746C1.88802 6.76386 2.08962 6.79986 2.30003 6.79986H12.7002C13.473 6.79986 14.1002 7.42707 14.1002 8.19988V13.4C14.1002 13.7713 13.9527 14.1274 13.6901 14.3899C13.4276 14.6525 13.0715 14.8 12.7002 14.8H3.10004C2.72873 14.8 2.37263 14.6525 2.11007 14.3899C1.84752 14.1274 1.70002 13.7713 1.70002 13.4Z" fill="#9295AD"/>
</g>
<defs>
<clipPath id="clip0_1698_29477">
<rect width="16" height="16" fill="white"/>
</clipPath>
</defs>
</svg>